PathFileType	4	(X/Y/Z)	G:\Shared drives\HPL_Drive\Nord Sprinting Study\Kristen_Nord_test\Trimmed_Nord000004.trc
DataRate	CameraRate	NumFrames	NumMarkers	Units	OrigDataRate	OrigDataStartFrame	OrigNumFrames
200.00	200.00	      4	52	mm	200.00	502	      1002
Frame#	Time	C7			R_Shoulder			L_Shoulder			Sternum			R_humerus			R_elbow_med			R_elbow_lat			R_forearm			R_wrist_radius			R_wrist_ulna			L_humerus			L_elbow_med			L_elbow_lat			L_forearm			L_wrist_radius			L_wrist_ulna			r.ASIS			r.PSIS			r_IC			L.ASIS			L.PSIS			l_IC			r_thigh1			r_thigh2			r_thigh3			r_thigh4			r_thigh5			r_knee			r_mknee			r_shank_antsup			r_sh2			r_sh3			r_sh4			r_ankle			r_mankle			r_calc			r_5meta			r_toe			L_thigh1			L_thigh2			L_thigh3			L_thigh4			L_knee			L_mknee			L_shank_antsup			L_sh2			L_sh3			L_ankle			L_mankle			L_calc			L_5meta			L_toe			
		X1	Y1	Z1	X2	Y2	Z2	X3	Y3	Z3	X4	Y4	Z4	X5	Y5	Z5	X6	Y6	Z6	X7	Y7	Z7	X8	Y8	Z8	X9	Y9	Z9	X10	Y10	Z10	X11	Y11	Z11	X12	Y12	Z12	X13	Y13	Z13	X14	Y14	Z14	X15	Y15	Z15	X16	Y16	Z16	X17	Y17	Z17	X18	Y18	Z18	X19	Y19	Z19	X20	Y20	Z20	X21	Y21	Z21	X22	Y22	Z22	X23	Y23	Z23	X24	Y24	Z24	X25	Y25	Z25	X26	Y26	Z26	X27	Y27	Z27	X28	Y28	Z28	X29	Y29	Z29	X30	Y30	Z30	X31	Y31	Z31	X32	Y32	Z32	X33	Y33	Z33	X34	Y34	Z34	X35	Y35	Z35	X36	Y36	Z36	X37	Y37	Z37	X38	Y38	Z38	X39	Y39	Z39	X40	Y40	Z40	X41	Y41	Z41	X42	Y42	Z42	X43	Y43	Z43	X44	Y44	Z44	X45	Y45	Z45	X46	Y46	Z46	X47	Y47	Z47	X48	Y48	Z48	X49	Y49	Z49	X50	Y50	Z50	X51	Y51	Z51	X52	Y52	Z52	

502	2.505	1213.95642	660.25073	1215.75427	1332.48657	696.07446	1210.02063	1080.03662	708.85333	1215.06726	1213.10095	777.17639	1141.81921	1501.98914	636.72815	1197.45959	1637.40930	625.96710	1119.40540	1620.22791	569.81451	1172.84949	1612.57129	650.87634	1273.86755	1583.92200	751.09528	1334.48511	1622.49268	728.53302	1354.00061	882.83789	653.62274	1174.82898	776.74414	669.14410	1079.29883	773.95459	610.02820	1129.35046	800.11230	702.56024	1243.43225	839.58698	775.69220	1298.20483	783.55835	774.83466	1305.18176	1331.02698	591.45917	704.18774	1278.79993	469.57935	850.40436	1363.80798	574.77472	813.14050	1094.31787	588.73499	701.81952	1161.75342	470.33563	842.95410	1068.68286	579.72144	797.80365	1390.29382	467.48941	491.49271	1381.85889	420.99222	385.81006	1393.12378	366.79309	378.28635	1395.13696	369.44193	536.31769	1373.65100	324.66531	427.60730	1374.63940	345.14301	302.26965	1251.26953	331.88675	320.96518	1392.01196	213.77432	309.79709	1371.96924	95.85465	322.54669	1394.08057	219.94121	386.45938	1375.94214	106.86680	404.88541	1354.73486	-68.70504	382.08392	1276.49365	-55.39440	352.57379	1297.79272	-89.87242	441.74707	1364.46631	-151.04787	288.54669	1329.75256	-127.28696	235.15689	1032.22229	472.81738	487.86017	1039.24500	416.48636	359.48337	1028.50476	365.10892	539.76459	1042.56042	313.13617	412.70114	1030.21667	324.39008	327.25690	1155.17688	322.94873	303.83923	1014.20074	212.35297	319.82773	1030.87488	225.69948	408.63260	1046.03394	104.77508	412.87909	1051.97351	-72.70024	393.01511	1117.35791	-56.73712	330.74564	1107.38464	-71.41903	433.45975	1038.43091	-178.51476	298.32343	1073.78027	-164.52104	235.94897	
503	2.510	1213.91504	661.50189	1215.20093	1332.53333	697.46362	1209.46692	1079.88660	710.03662	1214.57886	1212.99023	778.28046	1141.12244	1501.83398	637.86755	1196.97729	1637.25659	626.99078	1118.83472	1620.03442	570.82367	1172.37805	1612.40735	652.04932	1273.22974	1583.81189	752.22430	1333.76587	1622.41382	729.71674	1353.35120	881.77771	654.85992	1174.65283	776.96332	670.19818	1078.76770	773.82587	611.10876	1129.13086	800.03497	703.81561	1243.01514	839.51379	777.04095	1297.64771	783.97107	775.84326	1304.54041	1330.96558	592.09698	703.84265	1278.72949	470.32382	850.27698	1363.68738	575.59668	812.80878	1094.12683	589.15045	701.47028	1161.80371	471.03165	842.93945	1068.69116	580.41071	797.81201	1390.22534	467.80121	491.26270	1381.85205	421.04272	385.66739	1393.11572	366.89978	378.23764	1395.14514	369.77325	536.25854	1373.68176	324.85547	427.63879	1374.61865	345.13190	302.27759	1251.27271	331.84485	320.95804	1392.11230	213.85518	309.86295	1372.12939	95.89354	322.56790	1394.18115	219.97963	386.48599	1376.12256	106.92440	404.87256	1355.02856	-68.67472	382.02313	1276.69421	-55.41280	352.72083	1298.09680	-89.93021	441.80176	1364.73486	-151.01906	288.52127	1330.01331	-127.22166	235.08472	1032.19775	472.96899	487.71945	1039.17944	416.44592	359.41339	1028.51843	365.25909	539.72711	1042.61523	313.18948	412.71793	1030.66602	324.33218	327.36612	1155.18494	323.01880	303.83408	1014.35547	212.25711	320.14331	1031.01099	225.60869	408.68079	1046.44958	104.60834	412.80124	1052.32849	-72.67326	392.98843	1117.71960	-56.71937	330.72791	1107.64465	-71.45901	433.37897	1038.97632	-178.63472	298.30219	1074.25732	-164.56287	235.87762	
504	2.515	1213.73242	662.78723	1214.76636	1331.42126	698.71698	1208.85242	1079.80725	711.28174	1214.05029	1212.82410	779.47601	1140.47986	1501.70679	639.04724	1196.38574	1637.09106	627.96344	1118.25891	1619.82690	571.88818	1171.82922	1612.24097	653.04248	1272.79956	1583.90002	753.53680	1333.01538	1622.11987	731.07281	1352.54321	882.50256	656.02698	1174.25134	776.81372	671.23767	1078.39343	773.72089	612.11462	1128.89465	799.95605	705.09094	1242.56213	839.43677	778.39557	1297.08423	783.50281	777.50177	1304.06384	1330.79468	592.75128	703.42181	1278.68103	471.09116	850.11865	1363.58960	576.40466	812.48517	1094.01721	589.59277	701.11176	1161.76160	471.69449	842.81372	1068.59656	580.95679	797.49445	1390.20349	468.08240	491.02682	1381.82214	421.18546	385.55075	1393.15613	367.04166	378.23035	1395.11255	370.12973	536.22046	1373.70093	325.01047	427.64728	1374.59485	345.18079	302.34323	1251.28308	331.81174	320.95837	1392.21265	213.89587	309.87808	1372.32141	95.89799	322.60953	1394.29761	220.01263	386.52921	1376.28577	106.95978	404.94458	1355.25659	-68.68612	382.03571	1276.94629	-55.48462	352.72989	1298.34949	-89.97766	441.83667	1364.99146	-150.97874	288.48895	1330.20996	-127.16357	235.06119	1032.11487	473.02960	487.58521	1039.15295	416.41290	359.32376	1027.70764	367.17087	539.76111	1042.65637	313.18469	412.74329	1030.68982	324.29742	327.36029	1155.21277	323.02072	303.83862	1014.50903	212.23010	320.11584	1031.16931	225.53581	408.70172	1045.72192	104.72056	413.37537	1052.68152	-72.86278	392.98727	1118.05225	-56.74048	330.69418	1108.02271	-71.46519	433.34171	1039.52991	-178.75687	298.37384	1074.72021	-164.61850	235.87253	
505	2.520	1213.61511	664.01733	1214.26587	1332.13525	699.81720	1208.33313	1079.66760	712.55231	1213.56494	1212.71301	780.58313	1139.87195	1501.59119	640.06067	1195.77490	1636.88538	628.96021	1117.65918	1619.62671	572.94452	1171.25513	1612.12610	654.32916	1272.06970	1583.83801	754.69098	1332.33447	1621.92725	731.84790	1352.06323	882.40857	657.23340	1173.90784	776.61237	672.20685	1078.02661	773.59143	613.24976	1128.64099	799.90314	706.33704	1242.16724	839.41833	779.77319	1296.52954	783.16315	779.81616	1302.94165	1330.66699	593.31677	703.11499	1278.65381	471.94714	849.94342	1363.81543	577.09192	812.35712	1093.90515	589.94513	700.82043	1161.85400	472.60883	842.44592	1068.31970	581.51331	797.03473	1390.19202	468.34274	490.83987	1381.79639	421.34119	385.43936	1393.10706	367.17517	378.15189	1395.15027	370.53571	536.15161	1373.71130	325.21832	427.66330	1374.56494	345.20480	302.33417	1251.28467	331.78107	320.98703	1392.26978	213.97606	309.92477	1373.00928	95.60445	322.63837	1394.38818	220.04915	386.56772	1376.43628	106.98798	404.98456	1355.56140	-68.67319	382.07483	1277.19189	-55.47425	352.76022	1298.64697	-89.99063	441.85733	1365.18787	-150.92250	288.50992	1330.40308	-127.08958	235.12875	1032.08740	473.17645	487.45197	1039.08350	416.43835	359.21042	1028.54651	365.57730	539.69635	1042.68774	313.26901	412.77173	1030.73389	324.26874	327.32153	1155.19763	323.03610	303.80579	1014.58429	212.07957	320.13925	1031.28625	225.49356	408.72678	1046.71667	104.59560	412.88440	1053.08704	-72.95732	393.01047	1118.34961	-56.74988	330.65384	1108.45776	-71.38433	433.38748	1040.01477	-178.85248	298.35107	1075.22363	-164.71736	235.82713	
